<svg version="1.1" id="Layer_1" xmlns="http://www.w3.org/2000/svg" xmlns:xlink="http://www.w3.org/1999/xlink" x="0px" y="0px"
	 width="100%" viewBox="0 0 786 139" enable-background="new 0 0 786 139" xml:space="preserve">
<path fill="#A7C5F9" opacity="1.000000" stroke="none" 
	d="
M786.636963,59.908127 
	C787.000000,85.493935 786.940613,110.988205 787.080994,136.481369 
	C787.097168,139.412033 786.555725,140.095978 783.519592,140.087708 
	C737.197632,139.961639 690.875244,140.000000 644.552917,140.000000 
	C431.603577,140.000000 218.654221,139.984146 5.704957,140.116730 
	C1.557549,140.119308 0.874525,139.171173 0.890445,135.206696 
	C1.065087,91.717743 1.039691,48.227722 0.917395,4.738411 
	C0.908532,1.586975 1.663981,0.923495 4.760061,0.924472 
	C264.198334,1.006334 523.636597,1.009926 783.074829,0.897262 
	C786.648376,0.895710 787.138000,1.802708 787.091248,5.074294 
	C786.881592,19.734529 787.000000,34.399452 787.000000,49.531342 
	C786.508911,50.180073 785.864258,50.246372 785.607422,49.864708 
	C782.283813,44.924908 777.973633,41.278568 772.437012,38.936497 
	C770.633240,38.173485 770.507446,35.992020 770.508789,34.090714 
	C770.518005,21.226183 763.211609,15.843903 750.898743,19.705280 
	C742.960815,22.194651 739.572449,28.422905 739.192139,36.008301 
	C738.892029,41.995983 736.381409,45.845173 731.741333,49.219296 
	C724.340454,54.600964 717.344299,60.531036 710.439697,66.541298 
	C706.438354,70.024399 702.302002,71.116081 697.107666,69.336891 
	C691.510315,67.419640 686.072815,69.370552 682.541748,74.048088 
	C678.766296,79.049255 677.722107,84.548676 680.148560,90.486351 
	C681.272095,93.235817 683.865662,94.128746 686.305420,95.202484 
	C692.260620,97.823380 693.019226,99.121140 692.378967,105.508537 
	C691.812073,111.163567 694.568176,115.727676 699.739014,117.696861 
	C705.283386,119.808304 710.626831,118.359505 713.996216,113.809402 
	C717.043457,109.694481 718.567383,104.941902 719.460876,99.998367 
	C720.226685,95.761322 722.430176,92.905350 726.127563,90.637047 
	C734.220764,85.671997 741.610962,79.678429 749.154907,73.928902 
	C752.420593,71.440048 755.754089,70.274544 759.833984,71.413330 
	C763.574158,72.457291 767.440735,72.087585 771.260376,71.976219 
	C776.206970,71.832001 778.673950,67.969398 781.597412,64.848099 
	C783.162415,63.177097 783.895325,60.734863 786.636963,59.908127 
z"/>
<path fill="#6C5626" opacity="1.000000" stroke="none" 
	d="
M787.000000,59.545891 
	C786.859314,60.088886 786.654419,60.143864 786.586914,60.271435 
	C779.607605,73.474358 773.262268,76.609978 759.121216,73.071251 
	C755.791443,72.237976 753.667480,72.904884 751.075806,74.781853 
	C742.068604,81.305069 733.759827,88.839363 723.830444,94.029305 
	C722.307739,94.825195 722.287476,95.896339 721.986877,97.180603 
	C720.666565,102.821121 719.794434,108.614723 716.608398,113.651833 
	C712.619080,119.958763 705.932556,122.202545 698.846741,119.589790 
	C692.469849,117.238449 689.290771,111.397652 690.852966,103.897636 
	C691.651001,100.066383 690.801941,97.933640 686.849792,97.236893 
	C677.131592,95.523613 675.283081,87.573059 677.695129,79.186424 
	C680.409912,69.746956 688.971008,64.285057 696.962280,67.404045 
	C702.614624,69.610184 706.028809,68.006920 710.146301,64.429062 
	C718.045898,57.564754 726.399048,51.217255 734.658447,44.776424 
	C736.256470,43.530235 737.167969,42.337856 736.912598,40.254002 
	C736.521484,37.061810 737.279480,33.948448 738.046753,30.897884 
	C741.363464,17.711832 758.860046,12.027069 768.824036,20.754568 
	C772.488525,23.964293 773.773621,27.817575 772.536865,32.367184 
	C771.539001,36.037937 771.950256,38.162449 776.272461,39.065456 
	C781.814453,40.223305 784.902283,44.297287 786.704346,49.809937 
	C787.000000,53.030594 787.000000,56.061188 787.000000,59.545891 
z"/>
<path fill="#6B5626" opacity="1.000000" stroke="none" 
	d="
M84.437286,118.274551 
	C79.631683,123.976814 71.798454,125.065086 64.768738,121.303162 
	C57.565125,117.448174 53.621033,110.271431 56.222214,103.674576 
	C58.442455,98.043816 57.158279,94.319313 53.328197,90.001663 
	C46.382771,82.172081 40.016014,73.817741 33.632900,65.509430 
	C32.176014,63.613140 30.809294,63.381069 28.646606,63.381523 
	C16.488041,63.384068 8.773740,58.311401 6.549734,48.766590 
	C5.529573,44.388340 5.287488,39.856163 7.049709,35.517956 
	C9.429160,29.660261 13.707590,26.916075 19.980080,27.777174 
	C24.390205,28.382605 27.036741,28.076254 28.559052,22.786161 
	C31.159740,13.748658 44.180901,10.024725 52.900265,15.675491 
	C63.619465,22.622288 64.698593,27.222992 61.982662,41.404018 
	C61.388668,44.505527 61.790897,46.595242 63.582558,49.032440 
	C70.173965,57.998734 77.596863,66.396004 82.886482,76.257744 
	C83.855125,78.063644 85.200966,77.788467 86.507812,78.204636 
	C91.853310,79.906914 97.565048,80.453568 102.452156,83.598686 
	C108.983467,87.801933 111.252434,94.542351 108.381729,101.758049 
	C105.794556,108.261078 99.766624,111.147377 92.043678,109.302277 
	C89.063095,108.590179 87.302811,109.031242 86.643036,112.336472 
	C86.258087,114.264923 85.321869,116.083328 84.437286,118.274551 
z"/>
<path fill="#060709" opacity="1.000000" stroke="none" 
	d="
M544.132019,70.999863 
	C544.132141,63.667252 544.320251,56.827229 544.052856,50.005054 
	C543.919434,46.601349 545.099731,45.724411 548.296082,45.930763 
	C554.925232,46.358730 561.618530,45.334511 568.208862,46.906643 
	C575.470093,48.638798 580.359131,52.915737 582.448486,60.122280 
	C584.252319,66.343819 584.266602,72.647942 582.450378,78.865334 
	C579.922852,87.517433 573.214233,92.363251 562.787354,92.924049 
	C557.635803,93.201111 552.452026,92.851616 547.295288,93.073608 
	C544.423828,93.197212 544.044250,91.884178 544.092590,89.497185 
	C544.213928,83.500252 544.132263,77.499214 544.132019,70.999863 
z"/>
<path fill="#060708" opacity="1.000000" stroke="none" 
	d="
M387.684784,82.379494 
	C390.326782,74.668648 390.251556,74.507919 382.628418,74.500076 
	C379.957520,74.497330 377.969604,74.687531 377.973267,70.750183 
	C377.976837,66.922531 379.757141,66.867111 382.525360,66.952370 
	C386.687805,67.080582 390.862946,67.120522 395.021423,66.939461 
	C397.720856,66.821915 397.921234,68.220718 397.893250,70.322845 
	C397.811035,76.488007 397.805908,82.655815 397.893158,88.820847 
	C397.928986,91.351204 398.025848,93.478760 394.385284,93.073044 
	C391.822418,92.787437 388.715302,93.724556 389.445374,89.278946 
	C389.541840,88.691422 389.242401,88.038879 388.983215,86.649094 
	C384.202698,94.066505 377.567963,94.323608 370.676331,92.370872 
	C363.173187,90.244858 360.201447,84.161041 358.802490,77.080292 
	C357.988434,72.959915 357.930420,68.815041 358.441803,64.645088 
	C360.814941,45.294643 378.192444,43.104591 390.230499,47.648338 
	C392.122375,48.362434 393.912659,49.461594 395.021637,51.129185 
	C395.932770,52.499241 398.904846,54.117687 395.900024,55.869156 
	C393.881897,57.045483 391.866638,61.138428 388.718597,56.675819 
	C385.715118,52.418106 380.915375,52.453110 376.420532,53.287540 
	C371.932770,54.120663 369.219971,57.303707 368.143951,61.709652 
	C366.940552,66.637222 366.896942,71.635048 367.963898,76.584625 
	C370.048462,86.254654 379.945251,89.341789 387.684784,82.379494 
z"/>
<path fill="#060709" opacity="1.000000" stroke="none" 
	d="
M633.548096,82.682922 
	C634.476685,80.198067 636.554382,79.403275 638.780579,78.188568 
	C633.510498,74.348251 631.407471,69.692070 634.067261,64.061356 
	C637.092102,57.658039 643.112305,57.338188 649.079041,57.945820 
	C652.154541,58.259033 654.571838,59.175739 655.614441,54.782093 
	C656.303528,51.877762 659.047791,54.152016 660.655334,54.508881 
	C662.961731,55.020866 662.117188,57.232059 661.112854,57.996979 
	C657.396729,60.827171 658.376709,63.616432 659.687988,67.437462 
	C661.482178,72.665680 657.727417,77.344406 651.699219,79.219177 
	C649.255310,79.979233 646.798645,80.069511 644.305847,80.007362 
	C642.410522,79.960106 640.895996,80.488930 640.839355,82.625267 
	C640.782166,84.782921 642.414124,85.386009 644.198547,85.474426 
	C647.682739,85.647057 651.175232,85.658836 654.658508,85.844238 
	C658.849243,86.067299 662.060669,87.797325 663.182861,92.139191 
	C664.415710,96.909065 663.382751,101.080315 659.343628,104.162094 
	C654.028992,108.217033 639.088013,108.453262 633.518738,104.656128 
	C627.631104,100.641937 628.773865,94.359116 636.198425,90.543251 
	C634.573059,88.300247 632.439453,86.214836 633.548096,82.682922 
z"/>
<path fill="#060608" opacity="1.000000" stroke="none" 
	d="
M127.282852,79.558167 
	C131.638367,83.076233 135.717987,86.647354 141.906067,86.031403 
	C145.467102,85.676933 148.120209,84.443817 148.579575,80.643661 
	C149.018433,77.013046 146.715073,75.115944 143.563339,74.213959 
	C140.372253,73.300690 137.056686,72.805382 133.893799,71.813927 
	C126.665161,69.548027 123.197197,64.205429 124.068710,57.054581 
	C124.815018,50.931087 129.894806,46.407784 136.900925,45.925884 
	C142.396332,45.547897 147.942932,45.368706 152.847534,48.582474 
	C154.446640,49.630295 156.738373,50.693775 154.355713,53.090706 
	C152.821228,54.634361 152.426682,58.735168 148.623093,55.368805 
	C145.719910,52.799351 141.887787,52.691010 138.177643,53.093849 
	C135.332169,53.402802 132.940033,54.575855 132.678146,57.841774 
	C132.440475,60.805901 134.203506,62.478813 136.901840,63.196365 
	C140.425156,64.133301 144.026718,64.801369 147.506271,65.872169 
	C155.086716,68.204987 158.479233,73.397705 157.561401,80.893005 
	C156.675262,88.129425 151.705383,92.714035 144.101624,93.116753 
	C139.277603,93.372246 134.474960,93.392525 129.894333,91.323624 
	C122.352249,87.917152 121.873245,86.161163 127.282852,79.558167 
z"/>
<path fill="#060709" opacity="1.000000" stroke="none" 
	d="
M414.095673,91.203094 
	C406.081848,85.914650 405.254791,78.411041 406.732239,70.280220 
	C407.917480,63.757854 412.016327,59.619732 418.420105,58.111107 
	C426.393524,56.232685 433.754456,58.924213 437.414825,64.702019 
	C441.534302,71.204483 441.048798,82.111259 436.387939,87.770370 
	C432.070282,93.012756 423.901489,94.800247 416.258087,92.162453 
	C415.635223,91.947502 415.041351,91.648705 414.095673,91.203094 
z"/>
<path fill="#060709" opacity="1.000000" stroke="none" 
	d="
M592.807739,66.053680 
	C597.703064,58.641495 605.104248,55.943356 613.370422,58.272293 
	C620.341858,60.236446 624.560913,66.207687 624.862244,74.536530 
	C625.187927,83.539093 621.537476,90.195938 614.200134,92.274651 
	C600.998291,96.014801 591.280945,89.500725 590.836792,76.601341 
	C590.715393,73.076988 591.093567,69.633835 592.807739,66.053680 
z"/>
<path fill="#060709" opacity="1.000000" stroke="none" 
	d="
M196.852173,82.574883 
	C192.707901,91.485970 185.916672,94.820175 176.327408,92.977043 
	C169.216705,91.610313 164.478989,85.739784 163.870850,77.542046 
	C163.168686,68.076736 166.814590,60.948441 174.374817,58.758751 
	C187.480301,54.962975 197.235199,61.344627 197.859909,74.303589 
	C197.989059,76.982399 197.659729,79.607300 196.852173,82.574883 
z"/>
<path fill="#0B0D10" opacity="1.000000" stroke="none" 
	d="
M325.332458,59.458649 
	C332.168121,56.357330 333.724396,57.261696 333.726257,63.860142 
	C333.728516,72.020226 333.779053,80.180885 333.689819,88.339996 
	C333.667603,90.369644 334.879913,93.308617 330.733398,93.084625 
	C327.885986,92.930824 324.839142,93.528435 325.560333,89.010246 
	C325.591370,88.815811 325.170349,88.549225 324.791595,88.129883 
	C322.621582,90.060837 320.853577,92.538734 317.657623,93.101784 
	C308.606201,94.696411 303.393494,90.671547 303.148438,81.457901 
	C302.971436,74.801285 303.327179,68.126404 303.024017,61.478882 
	C302.859344,57.868286 304.689056,57.897411 307.276428,57.919121 
	C309.973145,57.941753 312.069366,57.780113 311.821198,61.711647 
	C311.454773,67.517090 311.758209,73.363136 311.717377,79.191467 
	C311.694763,82.416122 312.130768,85.357796 316.051727,85.895554 
	C320.162567,86.459351 323.365509,85.051178 324.584351,80.826729 
	C325.127747,78.943336 325.206940,76.886749 325.243469,74.904091 
	C325.335510,69.909767 325.283569,64.912788 325.332458,59.458649 
z"/>
<path fill="#050607" opacity="1.000000" stroke="none" 
	d="
M264.276947,64.387314 
	C269.417145,55.973198 284.219971,56.249863 289.926575,61.493740 
	C296.645935,67.668282 297.359741,81.561363 290.984222,88.361031 
	C285.803650,93.886276 279.181915,94.162277 272.524567,92.510101 
	C266.311584,90.968193 262.849731,86.389877 261.747864,80.105774 
	C260.803558,74.720291 261.192810,69.515762 264.276947,64.387314 
z"/>
<path fill="#060709" opacity="1.000000" stroke="none" 
	d="
M505.813110,57.812027 
	C514.254272,58.579227 517.064819,61.613014 517.163269,69.660538 
	C517.206055,73.158669 517.134277,76.658257 517.183289,80.156219 
	C517.216492,82.527046 516.427795,85.083252 520.294434,85.784912 
	C522.204712,86.131577 521.571899,88.930069 521.635986,90.636238 
	C521.713501,92.698952 519.781311,92.725655 518.384644,92.911667 
	C514.308411,93.454559 511.299194,91.817619 509.494476,87.516701 
	C506.564484,91.758858 503.043671,93.665138 498.231262,93.235588 
	C493.000366,92.768677 489.613953,90.113739 488.839813,85.281334 
	C487.984436,79.941711 490.050751,76.072006 495.211182,74.311081 
	C498.493103,73.191162 502.000671,72.747917 505.376343,71.881523 
	C507.414551,71.358383 509.305756,70.380180 508.812531,67.811508 
	C508.403473,65.681396 506.689392,65.116692 504.663422,64.997429 
	C501.360596,64.802986 498.244904,65.468948 495.771179,67.580978 
	C493.561432,69.467621 492.617706,68.637993 491.158630,66.714371 
	C489.563080,64.610817 489.852203,63.357483 491.828522,61.822540 
	C495.851715,58.697849 500.348419,57.438385 505.813110,57.812027 
z"/>
<path fill="#050607" opacity="1.000000" stroke="none" 
	d="
M228.187439,49.579643 
	C230.555099,53.846161 232.718613,57.787506 234.953217,61.688110 
	C235.594482,62.807476 235.866852,64.582993 237.309280,64.687233 
	C238.916611,64.803406 239.016449,62.891949 239.634796,61.826263 
	C241.556000,58.515156 243.321594,55.113777 245.147919,51.747620 
	C248.651581,45.289871 248.651688,45.289932 257.202942,46.519459 
	C254.106857,52.160076 251.439255,57.897408 247.982071,63.111191 
	C242.908447,70.762749 240.460480,78.809097 241.427307,88.027435 
	C241.896912,92.504814 238.090988,94.698845 233.849731,92.989227 
	C232.263824,92.349960 232.576599,91.054138 232.753159,90.090744 
	C235.045013,77.585587 229.272522,67.517769 223.144455,57.503239 
	C220.993332,53.987835 219.145844,50.286629 216.798126,46.011902 
	C221.152924,46.745884 225.708542,43.633427 228.187439,49.579643 
z"/>
<path fill="#020303" opacity="1.000000" stroke="none" 
	d="
M453.308350,90.839844 
	C450.452942,88.040497 449.890503,84.797020 449.856018,81.402580 
	C449.812103,77.079239 449.812988,72.754845 449.856110,68.431519 
	C449.872437,66.794777 449.768494,65.268913 447.601379,65.494423 
	C444.124939,65.856194 444.612488,63.534447 444.458313,61.346558 
	C444.277618,58.782204 445.080414,57.692097 447.775055,57.952038 
	C450.632568,58.227692 449.915344,55.897854 449.792175,54.476624 
	C449.311951,48.933327 453.970581,50.765530 456.358459,50.245152 
	C459.511810,49.557938 458.348572,52.738213 458.183014,54.067387 
	C457.583466,58.880039 460.814240,58.102779 463.513885,57.961613 
	C466.414825,57.809929 468.603485,57.755966 468.285095,61.906372 
	C468.068695,64.727371 467.298828,65.947792 464.546783,65.433418 
	C459.023590,64.401085 457.644775,67.045990 458.225952,72.002739 
	C458.552948,74.791641 458.323181,77.650566 458.280457,80.476982 
	C458.215393,84.784233 460.403320,87.076057 464.473114,85.740547 
	C468.391632,84.454697 468.033783,87.319260 468.838043,89.162987 
	C470.037201,91.911995 467.608459,92.441490 466.049591,92.710564 
	C461.798187,93.444420 457.440155,94.018021 453.308350,90.839844 
z"/>
<path fill="#F1CA72" opacity="1.000000" stroke="none" 
	d="
M754.631592,23.285406 
	C765.096558,21.788588 768.289185,25.114298 766.390564,35.001591 
	C766.265137,35.654289 766.141785,36.307838 766.039246,36.964394 
	C765.063721,43.208958 765.073547,43.130333 771.228516,43.787243 
	C772.819397,43.957039 774.339539,44.790855 776.224487,45.565506 
	C776.990417,56.735085 770.696106,62.861202 759.838196,62.059227 
	C757.469116,61.884243 755.145020,62.020802 753.053955,63.235241 
	C740.189392,70.706741 728.052307,79.121254 718.159668,90.409805 
	C717.615295,91.030945 717.100952,91.696556 716.805603,92.877121 
	C716.221191,99.058388 715.206543,104.756187 712.175171,109.876152 
	C709.235779,114.840729 705.561707,116.262398 700.941223,114.334763 
	C696.532898,112.495613 695.193237,109.339081 696.419373,103.680107 
	C698.299988,95.000351 698.300171,94.999710 689.883911,92.254417 
	C688.785583,91.896172 687.683899,91.548553 686.255737,90.998276 
	C683.897705,87.570084 684.986816,84.713257 687.179810,82.168365 
	C689.798584,79.129204 693.445312,77.633865 697.076233,79.122467 
	C705.238708,82.468903 711.133423,78.773430 717.033142,73.944092 
	C725.921265,66.668510 734.992859,59.616142 743.994568,52.483719 
	C750.587097,47.260262 753.277832,41.084549 751.736755,32.858356 
	C751.092346,29.418571 750.528931,25.798065 754.631592,23.285406 
z"/>
<path fill="#FCEB94" opacity="1.000000" stroke="none" 
	d="
M754.584351,23.060242 
	C753.175659,26.085871 752.800781,29.104088 753.579285,32.632504 
	C755.363953,40.721676 753.407104,47.648666 746.520630,52.988964 
	C736.299438,60.915195 726.364441,69.210648 716.137939,77.129723 
	C711.128784,81.008614 705.998169,84.254349 698.848999,81.586159 
	C691.102966,78.695213 687.445557,81.450035 685.940552,90.418686 
	C682.292847,87.850983 681.492065,83.715492 683.658569,79.081413 
	C685.878296,74.333168 691.066956,70.550537 694.527100,72.412445 
	C703.342468,77.156029 709.075684,73.143127 715.215637,67.259651 
	C722.871887,59.923328 731.158325,53.236416 739.293701,46.413387 
	C741.741455,44.360443 742.867981,42.325897 742.835144,38.896492 
	C742.738525,28.797577 745.853699,24.827286 754.584351,23.060242 
z"/>
<path fill="#C9A24B" opacity="1.000000" stroke="none" 
	d="
M717.064209,93.208260 
	C713.928589,91.303734 716.149536,89.589165 717.289124,88.354897 
	C727.663025,77.119461 740.045593,68.473129 753.234192,60.901218 
	C755.228149,59.756443 757.432373,59.891579 759.580811,60.075371 
	C769.373352,60.913074 772.725769,58.439144 775.048218,48.576092 
	C775.233582,47.788956 775.607910,47.046329 776.225647,46.047188 
	C781.122070,48.907768 782.516846,53.693550 780.469727,59.236835 
	C778.380920,64.892921 773.073303,68.877724 768.305054,68.317932 
	C764.215759,67.837845 760.033447,68.082054 756.116455,66.311317 
	C753.685608,65.212387 752.052490,67.267822 750.405396,68.500542 
	C740.319763,76.048607 730.306458,83.693283 720.256226,91.288696 
	C719.341492,91.979958 718.335571,92.550560 717.064209,93.208260 
z"/>
<path fill="#F1CA72" opacity="1.000000" stroke="none" 
	d="
M12.279398,45.371170 
	C10.614780,35.830807 14.129469,32.411549 23.154507,33.751415 
	C26.209579,34.204971 29.928730,36.455238 32.249420,34.477695 
	C34.445087,32.606693 31.873741,28.482540 33.560902,25.183113 
	C41.532818,21.455954 52.206341,28.167999 51.203514,36.591534 
	C50.325066,43.970299 52.944477,49.478050 56.794724,55.065121 
	C62.088627,62.747074 67.574333,70.280716 73.748337,77.276413 
	C76.140793,79.987267 78.676170,82.679466 82.768753,83.751358 
	C88.929329,83.816696 94.290192,85.447029 99.236046,88.363426 
	C103.628365,90.953415 105.007538,94.629822 103.458931,98.883659 
	C101.866791,103.257095 98.854912,104.818047 93.573273,104.007050 
	C83.820580,102.509521 83.823509,102.510452 80.743500,112.235115 
	C80.392754,113.342560 79.986534,114.432434 79.292114,115.705956 
	C69.499184,114.587578 66.224213,110.124367 68.674217,100.853394 
	C70.042732,95.674873 68.945755,91.497543 65.901253,87.362617 
	C57.732643,76.268272 48.812458,65.768272 40.388321,54.876049 
	C36.101360,49.333103 30.430737,46.997826 23.257879,48.310448 
	C19.447165,49.007805 15.223324,49.983894 12.279398,45.371170 
z"/>
<path fill="#FCEB93" opacity="1.000000" stroke="none" 
	d="
M12.047163,45.431587 
	C15.368150,47.181206 18.952604,47.529785 22.631290,46.584423 
	C30.735674,44.501728 37.027973,47.440342 41.979733,53.649815 
	C50.459301,64.283142 58.860455,74.981857 67.115051,85.790192 
	C70.011955,89.583305 72.589874,93.453697 71.112068,98.979813 
	C68.202965,109.858101 68.585541,110.228333 78.786743,115.593597 
	C72.460449,118.795746 68.088066,117.939407 63.735249,113.410660 
	C60.263550,109.798630 60.525497,105.900917 62.429001,101.939674 
	C64.745285,97.119423 63.772915,93.541481 60.116890,89.580589 
	C51.664101,80.422935 43.674053,70.832993 35.642097,61.295612 
	C33.568764,58.833668 31.509880,57.695202 28.094872,57.698807 
	C17.813238,57.709663 13.444955,54.233124 12.047163,45.431587 
z"/>
<path fill="#C8A24A" opacity="1.000000" stroke="none" 
	d="
M82.958328,83.563965 
	C79.391579,86.345413 77.107155,83.297783 75.018730,81.291061 
	C69.268845,75.766106 64.592003,69.294159 59.943581,62.836926 
	C57.718395,59.745872 55.874054,56.367657 53.521572,53.384159 
	C49.566299,48.367947 48.086067,43.105522 49.656681,36.693886 
	C50.482166,33.324051 48.646080,30.052588 45.412472,28.378475 
	C42.058361,26.641977 38.653976,24.751703 34.223915,24.872322 
	C37.092384,19.272385 41.802200,17.458782 47.694054,19.485214 
	C53.829613,21.595467 57.718845,26.968472 57.205963,32.420944 
	C56.834000,36.375267 56.993656,40.357372 55.282345,44.145199 
	C54.226582,46.482025 56.175198,48.201977 57.455738,49.895027 
	C65.882233,61.035957 74.339485,72.153625 82.958328,83.563965 
z"/>
<path fill="#A2BFF2" opacity="1.000000" stroke="none" 
	d="
M552.980957,64.047813 
	C552.980957,63.390377 552.937073,63.209354 552.987366,63.060005 
	C554.037903,59.938038 550.409851,55.042755 555.172485,53.647511 
	C562.810486,51.409893 570.586060,54.618637 572.901672,60.230804 
	C575.405945,66.300346 575.386841,72.629906 572.935913,78.710564 
	C570.771179,84.081192 559.498657,87.893486 554.191895,85.427666 
	C552.499329,84.641220 553.017456,83.216057 553.005981,81.996376 
	C552.951294,76.177681 552.981140,70.358192 552.980957,64.047813 
z"/>
<path fill="#A0BCEE" opacity="1.000000" stroke="none" 
	d="
M638.234863,98.419006 
	C637.422668,94.643478 638.977417,93.052002 642.298767,93.006813 
	C645.264954,92.966446 648.232117,93.006241 651.198853,92.998566 
	C653.222778,92.993324 654.793579,93.623863 655.093445,95.885956 
	C655.361572,97.908997 654.490967,99.355759 652.734558,100.378426 
	C649.045715,102.526283 642.201233,101.792465 638.234863,98.419006 
z"/>
<path fill="#9EBBEC" opacity="1.000000" stroke="none" 
	d="
M641.034363,68.182205 
	C641.887207,63.734165 644.731995,63.047295 648.184875,63.668278 
	C651.439026,64.253502 652.387268,66.624382 652.056763,69.567406 
	C651.734009,72.441040 649.968323,73.878571 647.056030,74.017311 
	C643.198059,74.201111 641.144470,72.469116 641.034363,68.182205 
z"/>
<path fill="#A3C0F3" opacity="1.000000" stroke="none" 
	d="
M428.365509,84.435898 
	C424.366821,86.678551 420.724854,86.838089 417.471802,83.945122 
	C414.587097,81.379669 413.897247,73.687584 415.900116,69.340919 
	C417.522217,65.820602 420.395782,64.784157 424.037933,64.995865 
	C427.432983,65.193222 429.843597,66.896088 430.668030,70.037880 
	C431.952118,74.931404 432.332336,79.886719 428.365509,84.435898 
z"/>
<path fill="#A3C0F2" opacity="1.000000" stroke="none" 
	d="
M607.951782,85.996002 
	C600.982910,84.996368 598.496399,80.793999 599.679810,72.698555 
	C600.513367,66.996368 603.757935,64.332008 609.190796,65.072235 
	C610.453735,65.244316 611.898376,65.647400 612.825806,66.447113 
	C616.916199,69.974213 616.486389,74.751930 615.744141,79.363373 
	C615.101990,83.353477 612.778748,85.970428 607.951782,85.996002 
z"/>
<path fill="#A3C0F2" opacity="1.000000" stroke="none" 
	d="
M174.027100,82.599609 
	C172.214859,78.782150 172.176453,75.167351 172.909897,71.531876 
	C173.777878,67.229485 176.330078,64.953575 180.895248,64.974968 
	C185.479523,64.996452 188.000641,67.355034 188.772476,71.648384 
	C189.119843,73.580650 189.131836,75.613853 189.003128,77.582100 
	C188.776337,81.050026 187.729080,84.314896 184.077454,85.504051 
	C180.414062,86.697029 176.845963,86.382820 174.027100,82.599609 
z"/>
<path fill="#A2BEF1" opacity="1.000000" stroke="none" 
	d="
M270.151947,78.444618 
	C269.864502,75.364334 269.842834,72.714622 270.745880,70.152069 
	C272.090149,66.337540 274.858978,64.829552 278.825562,64.970245 
	C282.680359,65.107002 285.040558,67.023201 286.045410,70.613289 
	C286.671967,72.851730 286.882416,75.161613 286.586121,77.514046 
	C285.890350,83.038338 283.639740,85.667412 279.245514,86.002045 
	C274.027222,86.399429 271.138184,83.877625 270.151947,78.444618 
z"/>
<path fill="#9EBAEB" opacity="1.000000" stroke="none" 
	d="
M507.985168,83.623024 
	C506.266785,86.015938 504.144104,86.732170 501.715790,86.531898 
	C499.444794,86.344604 497.479065,85.556396 497.101654,82.929840 
	C496.708954,80.196465 497.990448,78.547218 500.617798,77.863182 
	C501.412415,77.656296 502.188629,77.372429 502.988983,77.194611 
	C510.005432,75.635658 510.323944,76.012375 507.985168,83.623024 
z"/>
</svg>